# xmcd CD database file
#
# Track frame offsets:
#	150
#	21847
#	41447
#	62000
#	83641
#	105280
#	125246
#	145622
#	169054
#	196067
#
# Disc length: 2875 seconds
#
# Revision: 1
# Processed by: cddbd v1.5.2PL0 Copyright (c) Steve Scherf et al.
# Submitted via: CDex 1.70beta2
#
DISCID=790b390a
DTITLE=Saya - Bloom
DYEAR=2004
DGENRE=Jazz
TTITLE0=Shooting Star
TTITLE1=Flower Waltz
TTITLE2=Come Together
TTITLE3=Bloom
TTITLE4=Every Day
TTITLE5=Midnight Rose
TTITLE6=Samurai Funk
TTITLE7=Don't Know Why
TTITLE8=Higher
TTITLE9=Close to You
EXTD=YEAR: 2004
EXTT0=
EXTT1=
EXTT2=
EXTT3=
EXTT4=
EXTT5=
EXTT6=
EXTT7=
EXTT8=
EXTT9=
PLAYORDER=
